<svg viewBox="0 0 846.66 846.66" xml:space="preserve" xmlns="http://www.w3.org/2000/svg" shape-rendering="geometricPrecision" text-rendering="geometricPrecision" image-rendering="optimizeQuality" fill-rule="evenodd" clip-rule="evenodd"><path d="m27.96 175.78 558.17-.01c14.2 0 23.91 14.14 19.2 27.27l-80.21 254c11.29 1.66 21.67 6.25 30.33 12.96l110.06-353.33c2.71-8.71 10.75-14.3 19.43-14.3l134.04-.03c26.82 0 26.82 40.77 0 40.77H699.91l-118.96 381.9c-1.72 34.62-30.63 62.18-65.34 62.18H116.56c-26.82 0-26.82-40.77 0-40.77h399.05c13.57 0 24.65-11.1 24.65-24.66s-11.1-24.65-24.65-24.65H116.56c-9.22-.08-17.22-6.06-19.67-14.99L8.53 202.29c-4.18-13.23 5.78-26.49 19.43-26.51zm417.49 451.06c26.76 26.75 26.76 70.66 0 97.42-26.75 26.75-70.66 26.75-97.41 0-26.76-26.76-26.76-70.67 0-97.42 26.75-26.75 70.66-26.75 97.41 0zm-28.83 28.83c-10.91-10.92-28.84-10.92-39.75 0-10.92 10.92-10.92 28.84 0 39.76 10.91 10.91 28.84 10.91 39.75 0 10.92-10.92 10.92-28.84 0-39.76zm-150.56-28.83c26.75 26.75 26.75 70.66 0 97.42-26.76 26.75-70.67 26.75-97.42 0-26.75-26.76-26.75-70.67 0-97.42s70.66-26.75 97.42 0zm-28.83 28.83c-10.92-10.92-28.84-10.92-39.76 0-10.92 10.92-10.92 28.84 0 39.76 10.92 10.91 28.84 10.91 39.76 0 10.91-10.92 10.91-28.84 0-39.76zM55.76 216.55l75.72 239.79h351.13l75.72-239.79H55.76z" fill="#353535" fill-rule="nonzero" class="fill-000000"></path></svg>